<?xml version="1.0" encoding="utf-8"?>
<!-- Generator: Adobe Illustrator 22.0.1, SVG Export Plug-In . SVG Version: 6.00 Build 0)  -->
<svg version="1.1" id="Layer_1" xmlns="http://www.w3.org/2000/svg" xmlns:xlink="http://www.w3.org/1999/xlink" x="0px" y="0px"
	 viewBox="0 0 100 100" style="enable-background:new 0 0 100 100;" xml:space="preserve">
<style type="text/css">
	.st0{stroke:#231F20;stroke-width:3;stroke-linecap:round;stroke-linejoin:round;stroke-miterlimit:10;}
</style>
<g>
	<path d="M86.209,73H79v-6.876c0-0.8281-0.6719-1.5-1.5-1.5s-1.5,0.6719-1.5,1.5V73h-7.21c-0.8281,0-1.5,0.6719-1.5,1.5
		s0.6719,1.5,1.5,1.5H76v7.541c0,0.8281,0.6719,1.5,1.5,1.5s1.5-0.6719,1.5-1.5V76h7.209c0.8281,0,1.5-0.6719,1.5-1.5
		S87.0371,73,86.209,73z"/>
	<path d="M86,54.7002V24.7705c0.1045-1.208-1.1309-1.6396-1.1582-1.6523L43.8564,4.4092c-0.373-0.1719-0.8017-0.1807-1.1826-0.0274
		L1.6914,20.8633C0.9766,21.2295,1,21.6523,1,22.2373c0,0.0029,0,0.0059,0,0.0088c0,0.0029,0,0.0059,0,0.0088V78.207
		c0,0.6094,0.2441,1.1582,0.8086,1.3887L42.125,96.2656c0.5664,0.2578,1.1563,0.5,2.3076,0.0879l16.9112-6.9853
		c3.9833,4.4248,9.75,7.2119,16.1572,7.2119c11.9922,0,21.8896-9.7559,21.8896-21.7481C99.3906,65.7471,94,57.9492,86,54.7002z
		 M24.9756,14.7324l35.9375,16.8985l-17.3115,6.5L6.1816,22.29L24.9756,14.7324z M43.1963,7.4053l37.1133,16.9424L64.834,30.1582
		L28.7764,13.2041L43.1963,7.4053z M4,24.5322l38,16.3272v51.8642L4,77.1992V24.5322z M45,92.9805V40.9102l38-14.2618v27.0723
		c-2-0.4141-3.5605-0.6377-5.3594-0.6377c-11.9922,0-21.8183,9.7568-21.8183,21.749c0,4.4668,1.4541,8.6231,3.7724,12.0811
		L45,92.9805z M77.499,93.5801c-10.3369,0-18.747-8.4102-18.747-18.7481s8.4101-18.749,18.747-18.749
		c10.3379,0,18.749,8.4111,18.749,18.749S87.8369,93.5801,77.499,93.5801z"/>
</g>
</svg>
