<?xml version="1.0" encoding="utf-8"?>
<!-- Generator: Adobe Illustrator 22.0.1, SVG Export Plug-In . SVG Version: 6.00 Build 0)  -->
<svg version="1.1" id="Layer_1" xmlns="http://www.w3.org/2000/svg" xmlns:xlink="http://www.w3.org/1999/xlink" x="0px" y="0px"
	 viewBox="0 0 100 100" style="enable-background:new 0 0 100 100;" xml:space="preserve">
<style type="text/css">
	.st0{stroke:#231F20;stroke-width:3;stroke-linecap:round;stroke-linejoin:round;stroke-miterlimit:10;}
</style>
<g>
	<g>
		<path d="M97.26948,96.064H2.79488c-0.8281,0-1.5-0.6714-1.5-1.5c0-0.82861,0.6719-1.5,1.5-1.5h94.4746
			c0.8282,0,1.5,0.67139,1.5,1.5C98.76948,95.3926,98.09768,96.064,97.26948,96.064z"/>
	</g>
	<g>
		<path d="M28.82708,85.0479h-15.7099c-0.8281,0-1.5-0.67139-1.5-1.5V49.7173c0-0.8286,0.6719-1.5,1.5-1.5h15.7099
			c0.8282,0,1.5,0.6714,1.5,1.5v33.8306C30.32708,84.3765,29.65528,85.0479,28.82708,85.0479z M14.61718,82.0479h12.7099V51.2173
			h-12.7099V82.0479z"/>
	</g>
	<g>
		<path d="M57.71878,85.0479h-15.7129c-0.8282,0-1.5-0.67139-1.5-1.5V33.4561c0-0.8287,0.6718-1.5,1.5-1.5h15.7129
			c0.8281,0,1.5,0.6713,1.5,1.5v50.0918C59.21878,84.3765,58.54688,85.0479,57.71878,85.0479z M43.50588,82.0479h12.7129V34.9561
			h-12.7129V82.0479z"/>
	</g>
	<g>
		<path d="M88.22948,85.0479h-15.7139c-0.8281,0-1.5-0.67139-1.5-1.5V6.6445c0-0.8286,0.6719-1.5,1.5-1.5h15.7139
			c0.8281,0,1.5,0.6714,1.5,1.5v76.9034C89.72948,84.3765,89.05758,85.0479,88.22948,85.0479z M74.01558,82.0479h12.7139V8.1445
			h-12.7139V82.0479z"/>
	</g>
</g>
</svg>
