<?xml version="1.0" encoding="utf-8"?>
<!-- Generator: Adobe Illustrator 22.0.1, SVG Export Plug-In . SVG Version: 6.00 Build 0)  -->
<svg version="1.1" id="Layer_1" xmlns="http://www.w3.org/2000/svg" xmlns:xlink="http://www.w3.org/1999/xlink" x="0px" y="0px"
	 viewBox="0 0 100 100" style="enable-background:new 0 0 100 100;" xml:space="preserve">
<style type="text/css">
	.st0{stroke:#231F20;stroke-width:3;stroke-linecap:round;stroke-linejoin:round;stroke-miterlimit:10;}
</style>
<g>
	<path d="M97.4688,11H3.33008C2.502,11,2,12.168,2,12.9961v18.4971C2,32.3213,2.502,33,3.33008,33H8v56.4668
		C8,90.2949,8.57618,91,9.40428,91H91.3955C92.2236,91,93,90.2949,93,89.4668V33h4.4688C98.2969,33,99,32.3213,99,31.4932V12.9961
		C99,12.168,98.2969,11,97.4688,11z M90,88H11V33h79V88z M96,30h-4.6045H9.40428H5V14h91V30z"/>
	<path d="M40.3223,50h21.8105c0.8281,0,1.5-0.6719,1.5-1.5s-0.6719-1.5-1.5-1.5H40.3223c-0.82822,0-1.50003,0.6719-1.50003,1.5
		S39.49408,50,40.3223,50z"/>
</g>
</svg>
