<?xml version="1.0" encoding="utf-8"?>
<!-- Generator: Adobe Illustrator 22.0.1, SVG Export Plug-In . SVG Version: 6.00 Build 0)  -->
<svg version="1.1" id="Layer_1" xmlns="http://www.w3.org/2000/svg" xmlns:xlink="http://www.w3.org/1999/xlink" x="0px" y="0px"
	 viewBox="0 0 100 100" style="enable-background:new 0 0 100 100;" xml:space="preserve">
<style type="text/css">
	.st0{stroke:#231F20;stroke-width:3;stroke-linecap:round;stroke-linejoin:round;stroke-miterlimit:10;}
</style>
<g>
	<g>
		<path d="M45.5176,49H5.4824C3.5625,49,2,47.438,2,45.5176V5.4824C2,3.562,3.5625,2,5.4824,2h40.0352C47.4375,2,49,3.562,49,5.4824
			v40.0352C49,47.438,47.4375,49,45.5176,49z M5.4824,5C5.2168,5,5,5.2163,5,5.4824v40.0352C5,45.7837,5.2168,46,5.4824,46h40.0352
			C45.7832,46,46,45.7837,46,45.5176V5.4824C46,5.2163,45.7832,5,45.5176,5H5.4824z"/>
	</g>
	<g>
		<path d="M94.5176,49H54.4824C52.5625,49,51,47.438,51,45.5176V5.4824C51,3.562,52.5625,2,54.4824,2h40.0352
			C96.4375,2,98,3.562,98,5.4824v40.0352C98,47.438,96.4375,49,94.5176,49z M54.4824,5C54.2168,5,54,5.2163,54,5.4824v40.0352
			C54,45.7837,54.2168,46,54.4824,46h40.0352C94.7832,46,95,45.7837,95,45.5176V5.4824C95,5.2163,94.7832,5,94.5176,5H54.4824z"/>
	</g>
	<g>
		<path d="M45.5176,99H5.4824C3.5625,99,2,97.438,2,95.5176V55.4824C2,53.562,3.5625,52,5.4824,52h40.0352
			C47.4375,52,49,53.562,49,55.4824v40.0352C49,97.438,47.4375,99,45.5176,99z M5.4824,55C5.2168,55,5,55.2163,5,55.4824v40.0352
			C5,95.7837,5.2168,96,5.4824,96h40.0352C45.7832,96,46,95.7837,46,95.5176V55.4824C46,55.2163,45.7832,55,45.5176,55H5.4824z"/>
	</g>
	<g>
		<path d="M94.5176,99H54.4824C52.5625,99,51,97.438,51,95.5176V55.4824C51,53.562,52.5625,52,54.4824,52h40.0352
			C96.4375,52,98,53.562,98,55.4824v40.0352C98,97.438,96.4375,99,94.5176,99z M54.4824,55C54.2168,55,54,55.2163,54,55.4824
			v40.0352C54,95.7837,54.2168,96,54.4824,96h40.0352C94.7832,96,95,95.7837,95,95.5176V55.4824C95,55.2163,94.7832,55,94.5176,55
			H54.4824z"/>
	</g>
</g>
</svg>
