<?xml version="1.0" encoding="utf-8"?>
<!-- Generator: Adobe Illustrator 22.0.1, SVG Export Plug-In . SVG Version: 6.00 Build 0)  -->
<svg version="1.1" id="Layer_1" xmlns="http://www.w3.org/2000/svg" xmlns:xlink="http://www.w3.org/1999/xlink" x="0px" y="0px"
	 viewBox="0 0 100 100" style="enable-background:new 0 0 100 100;" xml:space="preserve">
<style type="text/css">
	.st0{stroke:#231F20;stroke-width:3;stroke-linecap:round;stroke-linejoin:round;stroke-miterlimit:10;}
</style>
<g>
	<path d="M86.209,73H68.79c-0.8286,0-1.5,0.6719-1.5,1.5s0.6714,1.5,1.5,1.5h17.419c0.8286,0,1.5-0.6719,1.5-1.5
		S87.0376,73,86.209,73z"/>
	<path d="M86,54.7002V24.4824c-0.0625-0.8105-0.896-1.2129-0.9258-1.2334c-0.04881-0.0342-0.2051-0.1181-0.2329-0.1308
		L43.8569,4.4092c-0.3745-0.1719-0.8027-0.1807-1.1831-0.0274L1.69141,20.8633C1.66016,20.876,1,21.1455,1,22.2373
		c0,0.0029,0,0.0059,0,0.0088c0,0.0029,0,0.0059,0,0.0088V78.207c0,0.6094,0.24414,1.1582,0.80811,1.3887L42.1826,96.2285
		c0.3799,0.1934,0.2085,0.1172,0.3799,0.1934c0.4219,0.1875,0.6138,0.1875,0.9063,0.1875c0.1938,0,0.4409-0.1114,0.625-0.1875
		l17.25-7.0528c3.9838,4.4239,9.7495,7.211,16.1572,7.211c11.9927,0,21.8891-9.7559,21.8891-21.7481
		C99.3901,65.7471,94,57.9492,86,54.7002z M24.9761,14.7324l35.937,16.8985l-17.312,6.5L6.18213,22.291L24.9761,14.7324z
		 M43.1958,7.4053l37.1138,16.9424L64.833,30.1582L28.7764,13.2041L43.1958,7.4053z M4,24.5322l38,16.3272v51.8642L4,77.1992
		V24.5322z M45,92.9805V40.9102l38-14.2618v27.0723c-2-0.4141-3.561-0.6377-5.3599-0.6377c-11.9912,0-21.8178,9.7568-21.8178,21.749
		c0,4.4668,1.4536,8.6231,3.7719,12.0811L45,92.9805z M77.499,93.5801c-10.3374,0-18.747-8.4102-18.747-18.7481
		s8.4096-18.749,18.747-18.749c10.3384,0,18.749,8.4111,18.749,18.749S87.8374,93.5801,77.499,93.5801z"/>
</g>
</svg>
