<svg width="48" height="68" viewBox="0 0 48 68" fill="none" xmlns="http://www.w3.org/2000/svg">
<path d="M7.09737e-05 53.172C0.124565 57.6218 1.38444 61.966 3.66007 65.792C3.99259 66.4556 4.50318 67.0135 5.13472 67.4035C5.76626 67.7934 6.49384 68 7.23607 68H24.4361C25.329 68.0006 26.1965 67.7025 26.9003 67.153C27.6042 66.6036 28.104 65.8344 28.3201 64.968L30.0001 58.248L31.6801 64.968C31.8962 65.8344 32.3959 66.6036 33.0998 67.153C33.8037 67.7025 34.6711 68.0006 35.5641 68H40.7641C41.5078 68 42.2368 67.7926 42.8692 67.4011C43.5016 67.0097 44.0124 66.4497 44.3441 65.784C46.6209 61.9617 47.8797 57.6194 48.0001 53.172C48.0001 41.404 40.0001 37.724 40.0001 33.212C40.0001 27.612 48.0001 26.656 48.0001 18.788C48.0001 10.272 40.0001 11.136 40.0001 5.844V4C40.0001 2.93913 39.5787 1.92172 38.8285 1.17157C38.0784 0.421428 37.0609 0 36.0001 0H32.0001C30.9392 0 29.9218 0.421428 29.1716 1.17157C28.4215 1.92172 28.0001 2.93913 28.0001 4V6.4C28.0008 7.17962 27.8087 7.94733 27.4409 8.63475C27.0731 9.32217 26.541 9.90797 25.8921 10.34C25.1818 10.8128 24.5444 11.3869 24.0001 12.044C23.4558 11.3869 22.8184 10.8128 22.1081 10.34C21.4591 9.90797 20.927 9.32217 20.5592 8.63475C20.1915 7.94733 19.9994 7.17962 20.0001 6.4V4C20.0001 2.93913 19.5786 1.92172 18.8285 1.17157C18.0784 0.421428 17.0609 0 16.0001 0H12.0001C10.9392 0 9.92179 0.421428 9.17165 1.17157C8.4215 1.92172 8.00007 2.93913 8.00007 4V5.844C8.00274 6.7218 7.75994 7.58287 7.29909 8.32997C6.83825 9.07707 6.17772 9.68046 5.39207 10.072C3.76731 10.8774 2.40084 12.1221 1.44776 13.6648C0.49467 15.2076 -0.00686481 16.9866 7.09737e-05 18.8C7.09737e-05 26.576 8.00007 27.704 8.00007 33.292C8.00007 37.564 7.09737e-05 41.496 7.09737e-05 53.172ZM4.00007 18.772C4.00007 12.476 12.0001 14.148 12.0001 5.828V4H16.0001V6.4C15.9979 7.83869 16.3523 9.25549 17.0314 10.5238C17.7106 11.7921 18.6934 12.8723 19.8921 13.668C20.5399 14.0993 21.0713 14.6838 21.439 15.3697C21.8067 16.0556 21.9995 16.8217 22.0001 17.6C22.0001 18.1304 22.2108 18.6391 22.5859 19.0142C22.9609 19.3893 23.4696 19.6 24.0001 19.6C24.5305 19.6 25.0392 19.3893 25.4143 19.0142C25.7894 18.6391 26.0001 18.1304 26.0001 17.6C25.9994 16.8204 26.1915 16.0527 26.5592 15.3653C26.927 14.6778 27.4591 14.092 28.1081 13.66C29.3056 12.8651 30.2877 11.7861 30.9668 10.5193C31.6459 9.25252 32.0009 7.83733 32.0001 6.4V4H36.0001V5.844C36.0001 14.244 44.0001 12.436 44.0001 18.788C44.0001 24.436 36.0001 25.34 36.0001 33.28C36.0001 40.3 44.0001 42.164 44.0001 53.172C43.8633 56.9978 42.7508 60.7252 40.7681 64H35.5681L31.9441 49.516C31.7943 49.1228 31.5286 48.7844 31.1821 48.5456C30.8357 48.3069 30.4248 48.179 30.0041 48.179C29.5833 48.179 29.1725 48.3069 28.826 48.5456C28.4796 48.7844 28.2139 49.1228 28.0641 49.516L24.4361 64H7.23607C5.25279 60.7252 4.13891 56.998 4.00007 53.172C4.00007 42.276 12.0001 40.336 12.0001 33.212C12.0001 25.276 4.00007 24.5 4.00007 18.8V18.772Z" fill="#393D46"/>
</svg>
