<?xml version="1.0" encoding="utf-8"?>
<!-- Generator: Adobe Illustrator 22.0.1, SVG Export Plug-In . SVG Version: 6.00 Build 0)  -->
<svg version="1.1" id="Layer_1" xmlns="http://www.w3.org/2000/svg" xmlns:xlink="http://www.w3.org/1999/xlink" x="0px" y="0px"
	 viewBox="0 0 100 100" style="enable-background:new 0 0 100 100;" xml:space="preserve">
<style type="text/css">
	.st0{stroke:#231F20;stroke-width:3;stroke-linecap:round;stroke-linejoin:round;stroke-miterlimit:10;}
</style>
<g>
	<path d="M75.72559,10H23.751C21.35738,10,21,11.375,21,12.1943v65.9336C21,79.6846,22.29589,81,23.82908,81h51.8965
		C76.40918,81,78,80.7197,78,78.1279V12.1943C78,10.7178,77.28028,10,75.72559,10z M75,78H24V13h51V78z"/>
	<path d="M81.63568,1h-62.2216C14.68458,1,13,3.3154,13,5.4824v88.8545C13,97.1953,15.80568,100,18.66408,100h62.2216
		C83.61038,100,86,97.3535,86,94.3369V5.4824C86,2.5713,83.751,1,81.63568,1z M83,94.3369C83,95.6807,81.95308,97,80.88568,97
		h-62.2216C17.44428,97,16,95.5566,16,94.3369V5.4824C16,4.0713,18.84378,4,19.41408,4h62.2216C81.69138,4,83,4.0166,83,5.4824
		V94.3369z"/>
	<path d="M50.35349,84.4053c-2.6211,0-4.7529,2.13081-4.7529,4.75c0,2.6211,2.1318,4.75391,4.7529,4.75391
		c2.6201,0,4.751-2.1328,4.751-4.75391C55.10448,86.5361,52.97358,84.4053,50.35349,84.4053z M50.35349,90.9092
		c-0.9668,0-1.7529-0.7871-1.7529-1.75391c0-0.9649,0.7861-1.75,1.7529-1.75c0.9658,0,1.751,0.7851,1.751,1.75
		C52.10448,90.1221,51.31928,90.9092,50.35349,90.9092z"/>
</g>
</svg>
