<svg width="69" height="69" viewBox="0 0 69 69" fill="none" xmlns="http://www.w3.org/2000/svg">
<path d="M60.948 15.38C60.624 14.5701 60.1272 13.8406 59.4923 13.2423C58.8574 12.6441 58.0997 12.1914 57.272 11.916L47.82 8.76399L45.296 3.71599C44.8001 2.71722 44.0344 1.87725 43.0857 1.2912C42.137 0.705145 41.0432 0.396425 39.928 0.399994H28.872C27.7569 0.396425 26.6631 0.705145 25.7144 1.2912C24.7657 1.87725 24 2.71722 23.504 3.71599L20.98 8.76399L11.528 11.916C10.7003 12.1914 9.94264 12.6441 9.30777 13.2423C8.6729 13.8406 8.17612 14.5701 7.85204 15.38L1.11604 32.224C0.640839 33.4051 0.39774 34.6668 0.400041 35.94V60.4C0.400041 61.4608 0.821469 62.4783 1.57161 63.2284C2.32176 63.9785 3.33917 64.4 4.40004 64.4H8.40004C9.46091 64.4 10.4783 63.9785 11.2285 63.2284C11.9786 62.4783 12.4 61.4608 12.4 60.4V54.696L14.4 48.024V52.512C14.518 54.767 15.2061 56.9553 16.4 58.872V64.4C16.4 65.4608 16.8215 66.4783 17.5716 67.2284C18.3218 67.9785 19.3392 68.4 20.4 68.4H48.4C49.4609 68.4 50.4783 67.9785 51.2285 67.2284C51.9786 66.4783 52.4 65.4608 52.4 64.4V58.872C53.5941 56.9553 54.2822 54.767 54.4 52.512V48.024L56.4 54.696V60.4C56.4 61.4608 56.8215 62.4783 57.5716 63.2284C58.3218 63.9785 59.3392 64.4 60.4 64.4H64.4C65.4609 64.4 66.4783 63.9785 67.2285 63.2284C67.9786 62.4783 68.4 61.4608 68.4 60.4V35.94C68.4027 34.6681 68.1596 33.4076 67.684 32.228L60.948 15.38ZM56.356 15.92C54.2228 19.1279 52.2691 22.4517 50.504 25.876C50.292 26.676 50.472 25.748 50.4 48.4C48.8087 48.4 47.2826 47.7678 46.1574 46.6426C45.0322 45.5174 44.4 43.9913 44.4 42.4C44.4 41.8695 44.1893 41.3608 43.8143 40.9858C43.4392 40.6107 42.9305 40.4 42.4 40.4C41.8696 40.4 41.3609 40.6107 40.9858 40.9858C40.6108 41.3608 40.4 41.8695 40.4 42.4C40.4 45.0521 41.4536 47.5957 43.329 49.471C45.2043 51.3464 47.7479 52.4 50.4 52.4V52.512C50.3169 53.8904 49.8922 55.2266 49.164 56.4H36.4V19.472L46.696 12.608C58.12 16.492 55.56 15.456 56.356 15.92ZM26 7.70399L28.476 12.036L24.996 9.71599L26 7.70399ZM42.832 7.70399L43.836 9.70399L40.356 12.024L42.832 7.70399ZM40.088 4.43999L34.4 14.368L28.728 4.43999C29.54 4.39999 39.256 4.39999 40.072 4.43999H40.088ZM22.104 12.608L32.4 19.472V56.4H19.636C18.9018 55.2294 18.4765 53.8917 18.4 52.512V52.4C21.0522 52.4 23.5957 51.3464 25.4711 49.471C27.3465 47.5957 28.4 45.0521 28.4 42.4C28.4 41.8695 28.1893 41.3608 27.8143 40.9858C27.4392 40.6107 26.9305 40.4 26.4 40.4C25.8696 40.4 25.3609 40.6107 24.9858 40.9858C24.6108 41.3608 24.4 41.8695 24.4 42.4C24.4 43.9913 23.7679 45.5174 22.6427 46.6426C21.5175 47.7678 19.9913 48.4 18.4 48.4C18.328 25.752 18.508 26.656 18.296 25.876C16.5323 22.451 14.5785 19.1271 12.444 15.92C13.056 15.56 18.024 14 22.104 12.608ZM4.40004 60.4V56.4H8.40004V60.4H4.40004ZM14.148 34.952L8.91204 52.4H4.40004V35.94C4.39972 35.1769 4.54498 34.4207 4.82804 33.712L10.28 20.088L14.4 26.952V33.228C14.4004 33.8118 14.3155 34.3926 14.148 34.952ZM20.4 64.4V60.4H48.4V64.4H20.4ZM54.4 33.228V26.952L58.52 20.088L63.972 33.716C64.2559 34.423 64.4012 35.1781 64.4 35.94V52.4H59.888L54.652 34.948C54.4843 34.3901 54.3994 33.8106 54.4 33.228ZM60.4 60.4V56.4H64.4V60.4H60.4Z" fill="#393D46"/>
</svg>
