<?xml version="1.0" encoding="utf-8"?>
<!-- Generator: Adobe Illustrator 22.0.1, SVG Export Plug-In . SVG Version: 6.00 Build 0)  -->
<svg version="1.1" id="Layer_1" xmlns="http://www.w3.org/2000/svg" xmlns:xlink="http://www.w3.org/1999/xlink" x="0px" y="0px"
	 viewBox="0 0 100 100" style="enable-background:new 0 0 100 100;" xml:space="preserve">
<style type="text/css">
	.st0{stroke:#231F20;stroke-width:3;stroke-linecap:round;stroke-linejoin:round;stroke-miterlimit:10;}
</style>
<g>
	<path d="M99.61619,75.2119C99.47849,74.5078,98.86128,74,98.144,74H92V18.752C92,16,89.98728,16,88.90578,16h-77.6973
		C10.16749,16,7,16,7,18.752V74H2.043c-0.72811,0-1.35111,0.5234-1.47761,1.2402c-0.4902,2.7901-0.0947,5.08211,1.1763,6.81351
		c1.6431,2.2373,4.082,2.6152,4.355,2.6514c0.0615,0.0078,0.123,0.0127,0.185,0.0127c0.2798,0.00191,28.2329,0.1787,52.3389,0.1787
		c32.3818,0,34.7095-0.3125,35.4741-0.416c1.8511-0.2481,3.3472-1.0996,4.32619-2.4649
		C100.38278,79.2813,99.64838,75.377,99.61619,75.2119z M10,19.0664C10.24759,19.0225,10.65189,19,11.20849,19h77.6973
		c0.0263,0,0.0586,0,0.09422,0v55H10V19.0664z M95.98289,80.2676c-0.4985,0.6943-1.2466,1.1006-2.2871,1.2402
		c-1.3203,0.1768-8.4775,0.3887-35.0752,0.3887c-23.2759,0-50.1411-0.1651-52.1963-0.1777
		c-0.2832-0.0606-1.4785-0.3702-2.2641-1.44051C3.56349,79.4658,3.30029,78.3662,3.374,77H7h85h4.77879
		C96.79878,77.9629,96.67529,79.3018,95.98289,80.2676z"/>
	<path d="M83.07858,24h-66.1572C16.38429,24,16,24.0723,16,24.6094v43.7812C16,68.9277,16.38429,69,16.92139,69h66.1572
		C83.61568,69,84,68.9277,84,68.3906V24.6094C84,24.0723,83.61568,24,83.07858,24z M81,66H19V27h62V66z"/>
</g>
</svg>
