<svg width="44" height="68" viewBox="0 0 44 68" fill="none" xmlns="http://www.w3.org/2000/svg">
<path d="M36 7.4106e-06H7.75995C6.74068 -0.00195339 5.75912 0.385263 5.01571 1.08258C4.2723 1.77989 3.82314 2.7347 3.75995 3.75201L0.00794667 63.752C-0.026527 64.2981 0.0514097 64.8455 0.236935 65.3602C0.422461 65.875 0.711629 66.3462 1.08656 66.7448C1.46148 67.1433 1.91419 67.4607 2.41669 67.6773C2.91918 67.8939 3.46076 68.0051 4.00794 68.004H12.1879C13.1348 68.0036 14.0507 67.6673 14.7729 67.055C15.4951 66.4427 15.9767 65.594 16.1319 64.66L21.8799 30.168L27.6279 64.66C27.7841 65.5933 28.266 66.441 28.9881 67.0525C29.7102 67.664 30.6257 67.9997 31.5719 68H39.7519C40.2988 68.0011 40.84 67.89 41.3422 67.6736C41.8444 67.4573 42.2969 67.1403 42.6718 66.7422C43.0467 66.344 43.3359 65.8733 43.5217 65.359C43.7075 64.8447 43.7859 64.2978 43.7519 63.752L40 3.75201C39.9368 2.7347 39.4876 1.77989 38.7442 1.08258C38.0008 0.385263 37.0192 -0.00195339 36 7.4106e-06ZM36 4.00001L36.4399 11.044C35.0794 10.4375 33.9243 9.449 33.1148 8.19857C32.3054 6.94814 31.8764 5.48958 31.8799 4.00001H36ZM11.8799 4.00001C11.883 5.48947 11.4538 6.94781 10.6444 8.19815C9.83499 9.44849 8.68014 10.4371 7.31994 11.044L7.75995 4.00001H11.8799ZM31.5719 64L23.8519 17.672C23.7731 17.206 23.5319 16.783 23.1709 16.4779C22.8099 16.1729 22.3526 16.0055 21.8799 16.0055C21.4073 16.0055 20.95 16.1729 20.589 16.4779C20.228 16.783 19.9868 17.206 19.9079 17.672L12.1879 64H4.00794L7.03195 15.66C9.51381 14.8407 11.6885 13.2874 13.2684 11.2054C14.8483 9.12336 15.759 6.6108 15.8799 4.00001H19.8799V10C19.8799 10.5304 20.0907 11.0391 20.4657 11.4142C20.8408 11.7893 21.3495 12 21.8799 12C22.4104 12 22.9191 11.7893 23.2942 11.4142C23.6692 11.0391 23.8799 10.5304 23.8799 10V4.00001H27.8799C28.0009 6.6108 28.9116 9.12336 30.4915 11.2054C32.0714 13.2874 34.2461 14.8407 36.7279 15.66L39.7519 64H31.5719Z" fill="#393D46"/>
</svg>
