<svg width="67" height="60" viewBox="0 0 67 60" fill="none" xmlns="http://www.w3.org/2000/svg">
<path d="M19.1712 60H47.1712C48.2321 60 49.2495 59.5786 49.9996 58.8284C50.7498 58.0783 51.1712 57.0609 51.1712 56V22.828L54.3432 26C55.1047 26.7281 56.1176 27.1345 57.1712 27.1345C58.2248 27.1345 59.2377 26.7281 59.9992 26L65.1712 20.828C65.9211 20.0779 66.3423 19.0607 66.3423 18C66.3423 16.9394 65.9211 15.9221 65.1712 15.172L51.7552 1.75602C51.1996 1.19765 50.5388 0.754964 49.811 0.453557C49.0832 0.152149 48.3029 -0.00200162 47.5152 1.96223e-05H18.8272C18.0395 -0.00200162 17.2592 0.152149 16.5314 0.453557C15.8036 0.754964 15.1428 1.19765 14.5872 1.75602L1.17121 15.172C0.421323 15.9221 6.10352e-05 16.9394 6.10352e-05 18C6.10352e-05 19.0607 0.421323 20.0779 1.17121 20.828L6.34321 26C7.10468 26.7281 8.11764 27.1345 9.17121 27.1345C10.2248 27.1345 11.2377 26.7281 11.9992 26L15.1712 22.828V56C15.1712 57.0609 15.5926 58.0783 16.3428 58.8284C17.0929 59.5786 18.1103 60 19.1712 60ZM38.8032 4.00002C38.3959 5.16911 37.6349 6.18247 36.6257 6.89956C35.6165 7.61665 34.4092 8.00191 33.1712 8.00191C31.9332 8.00191 30.7259 7.61665 29.7167 6.89956C28.7075 6.18247 27.9465 5.16911 27.5392 4.00002H38.8032ZM9.17121 23.172L3.99921 18L17.4152 4.58402C17.79 4.21014 18.2978 4.00013 18.8272 4.00002H23.3752C23.8342 6.2606 25.0607 8.29297 26.8467 9.75278C28.6327 11.2126 30.8685 12.01 33.1752 12.01C35.4819 12.01 37.7177 11.2126 39.5037 9.75278C41.2897 8.29297 42.5162 6.2606 42.9752 4.00002H47.5232C48.0526 4.00013 48.5604 4.21014 48.9352 4.58402L62.3432 18L57.1712 23.172L50.5872 16.584C50.3075 16.3036 49.9508 16.1125 49.5624 16.0351C49.1739 15.9576 48.7712 15.9972 48.4054 16.1489C48.0395 16.3005 47.7268 16.5574 47.5071 16.887C47.2874 17.2166 47.1705 17.6039 47.1712 18V56H19.1712V18C19.1719 17.6039 19.055 17.2166 18.8353 16.887C18.6156 16.5574 18.303 16.3005 17.9371 16.1489C17.5712 15.9972 17.1685 15.9576 16.78 16.0351C16.3916 16.1125 16.0349 16.3036 15.7552 16.584L9.17121 23.172Z" fill="#393D46"/>
</svg>
