<?xml version="1.0" encoding="utf-8"?>
<!-- Generator: Adobe Illustrator 22.0.1, SVG Export Plug-In . SVG Version: 6.00 Build 0)  -->
<svg version="1.1" id="Layer_1" xmlns="http://www.w3.org/2000/svg" xmlns:xlink="http://www.w3.org/1999/xlink" x="0px" y="0px"
	 viewBox="0 0 100 100" style="enable-background:new 0 0 100 100;" xml:space="preserve">
<g>
	<path d="M93.5996,70H87V31.7852c0-0.7618,0.252-5.9068-3.1855-9.5923C81.5684,19.7866,78,18.5845,74,18.5869V16.167
		C74,15.3384,73.5508,15,72.7227,15H55.3359C54.5078,15,54,15.3384,54,16.167V19H38v-7h7.6006C47.9707,12,50,9.751,50,7.1719V5.583
		C50,3.0039,47.9707,1,45.6006,1H26.2158C23.8447,1,22,3.0039,22,5.583v1.5889C22,9.751,23.8447,12,26.2158,12H35v7h-9.8721
		c-0.0586,0-7.5654,0.25-10.1728,4.7285C12.7432,27.5273,13,31.3818,13,32.3125V70H6.3994C5.5713,70,5,70.9434,5,71.772V97.5049
		C5,98.3335,5.5713,99,6.3994,99h87.2002C94.4277,99,95,98.3335,95,97.5049V71.772C95,70.9434,94.4277,70,93.5996,70z M25,7.1719
		V5.583C25,4.6738,25.5117,4,26.2158,4h19.3848C46.3047,4,47,4.6738,47,5.583v1.5889C47,8.0811,46.3047,9,45.6006,9H26.2158
		C25.5117,9,25,8.0811,25,7.1719z M57,18h14v22H57V18z M17.5059,25.541C18.9668,23.4932,21.6162,22,25.2178,22H54v18h-2.2217
		c-0.8281,0-1.5,0.6714-1.5,1.5s0.6719,1.5,1.5,1.5h25.5088c0.82809,0,1.5-0.6714,1.5-1.5s-0.67191-1.5-1.5-1.5H74V21.583
		c4,0.0005,5.9727,0.8779,7.626,2.6397c2.7129,2.8896,2.3525,7.3017,2.3486,7.3413C83.9688,31.6152,84,31.667,84,31.7188V70H16
		V32.166C16,32.0591,15.4561,28.4146,17.5059,25.541z M92,96H8V73h84V96z"/>
	<path d="M57.2832,83H43.0518c-0.8282,0-1.5,0.6714-1.5,1.5s0.6718,1.5,1.5,1.5h14.2314c0.8281,0,1.5-0.6714,1.5-1.5
		S58.1113,83,57.2832,83z"/>
	<path d="M24.9043,53h5.1465c0.8281,0,1.5-0.6714,1.5-1.5s-0.6719-1.5-1.5-1.5h-5.1465c-0.8281,0-1.5,0.6714-1.5,1.5
		S24.0762,53,24.9043,53z"/>
	<path d="M24.9043,63h5.1465c0.8281,0,1.5-0.6714,1.5-1.5s-0.6719-1.5-1.5-1.5h-5.1465c-0.8281,0-1.5,0.6714-1.5,1.5
		S24.0762,63,24.9043,63z"/>
	<path d="M41.5977,50h-5.1465c-0.8282,0-1.5,0.6714-1.5,1.5s0.6718,1.5,1.5,1.5h5.1465c0.8281,0,1.5-0.6714,1.5-1.5
		S42.4258,50,41.5977,50z"/>
	<path d="M41.5977,60h-5.1465c-0.8282,0-1.5,0.6714-1.5,1.5s0.6718,1.5,1.5,1.5h5.1465c0.8281,0,1.5-0.6714,1.5-1.5
		S42.4258,60,41.5977,60z"/>
	<path d="M46.4971,51.5c0,0.8286,0.6718,1.5,1.5,1.5h5.1465c0.8281,0,1.5-0.6714,1.5-1.5s-0.6719-1.5-1.5-1.5h-5.1465
		C47.1689,50,46.4971,50.6714,46.4971,51.5z"/>
	<path d="M53.1436,60h-5.1465c-0.8282,0-1.5,0.6714-1.5,1.5s0.6718,1.5,1.5,1.5h5.1465c0.8281,0,1.5-0.6714,1.5-1.5
		S53.9717,60,53.1436,60z"/>
	<path d="M59.543,53h5.1465c0.8281,0,1.5-0.6714,1.5-1.5s-0.6719-1.5-1.5-1.5H59.543c-0.8282,0-1.5,0.6714-1.5,1.5
		S58.7148,53,59.543,53z"/>
	<path d="M59.543,63h5.1465c0.8281,0,1.5-0.6714,1.5-1.5s-0.6719-1.5-1.5-1.5H59.543c-0.8282,0-1.5,0.6714-1.5,1.5
		S58.7148,63,59.543,63z"/>
	<path d="M71.0889,53h5.1465c0.8281,0,1.5-0.6714,1.5-1.5s-0.6719-1.5-1.5-1.5h-5.1465c-0.8282,0-1.5,0.6714-1.5,1.5
		S70.2607,53,71.0889,53z"/>
	<path d="M71.0889,63h5.1465c0.8281,0,1.5-0.6714,1.5-1.5s-0.6719-1.5-1.5-1.5h-5.1465c-0.8282,0-1.5,0.6714-1.5,1.5
		S70.2607,63,71.0889,63z"/>
	<path d="M48,29.5c0-0.8286-0.6719-1.5-1.5-1.5h-22c-0.8281,0-1.5,0.6714-1.5,1.5v12c0,0.8286,0.6719,1.5,1.5,1.5h22
		c0.8281,0,1.5-0.6714,1.5-1.5V29.5z M26,31h19v9H26V31z"/>
</g>
</svg>
