<?xml version="1.0" encoding="utf-8"?>
<!-- Generator: Adobe Illustrator 22.0.1, SVG Export Plug-In . SVG Version: 6.00 Build 0)  -->
<svg version="1.1" id="Layer_1" xmlns="http://www.w3.org/2000/svg" xmlns:xlink="http://www.w3.org/1999/xlink" x="0px" y="0px"
	 viewBox="0 0 100 100" style="enable-background:new 0 0 100 100;" xml:space="preserve">
<style type="text/css">
	.st0{stroke:#231F20;stroke-width:3;stroke-linecap:round;stroke-linejoin:round;stroke-miterlimit:10;}
</style>
<g>
	<path d="M98.7251,30.248L81.60639,13.957c-0.1655-0.1572-0.3652-0.2754-0.583-0.3437L61.1133,7.3369
		c-0.458-0.1445-0.957-0.0605-1.3438,0.2246c-0.0439,0.0332-4.4697,3.2647-9.685,3.2647c-2.9981,0-5.6778-1.0899-7.9649-3.2393
		c-0.3891-0.3662-0.9458-0.4961-1.4565-0.3447l-20.6314,6.1601c-0.2216,0.0665-0.4253,0.1836-0.5947,0.3409L1.4282,30.5605
		c-0.5947,0.5557-0.6382,1.4844-0.0971,2.0928l10.9038,12.2696c0.5244,0.5917,1.416,0.6728,2.039,0.1904L18,42.2305V90.5
		c0,0.8281,0.6714,1.5,1.5,1.5h59c0.8286,0,1.5-0.6719,1.5-1.5V41.9424l4.62939,3.4658c0.6099,0.4551,1.4648,0.3838,1.9893-0.1709
		l12.1626-12.8721C99.34859,31.7646,99.32369,30.8184,98.7251,30.248z M50.0845,13.8262c4.4209,0,8.2617-1.8809,10.1782-3.0166
		c-0.2446,4.6582-1.7803,7.1377-3.0894,8.4111c-1.5332,1.4922-3.6684,2.2041-6.3398,2.1397
		c-7.9517-0.2159-9.0381-7.7657-9.1797-10.2745C44.15039,12.9023,46.9766,13.8262,50.0845,13.8262z M85.35639,42.2051l-5.9575-4.46
		c-0.4555-0.3388-1.0625-0.3935-1.5703-0.1406C77.32079,37.8594,77,38.3779,77,38.9463V89H21V39.1729
		c0-0.5723-0.3257-1.0948-0.8394-1.3467c-0.5127-0.252-1.1259-0.1905-1.5786,0.1601l-5.0356,3.8965l-9.001-10.1279l16.6821-15.5781
		l17.4126-5.1993c0.1294,4.9151,2.732,13.126,12.1119,13.3809c0.1523,0.0049,0.3032,0.0068,0.4531,0.0068
		c3.3076,0,6.018-1.0068,8.0605-2.9941c2.3531-2.29,3.7095-5.8047,3.9776-10.2168L79.79,16.3701L95.5742,31.3916L85.35639,42.2051z"
		/>
</g>
</svg>
