<?xml version="1.0" encoding="utf-8"?>
<!-- Generator: Adobe Illustrator 22.0.1, SVG Export Plug-In . SVG Version: 6.00 Build 0)  -->
<svg version="1.1" id="Layer_1" xmlns="http://www.w3.org/2000/svg" xmlns:xlink="http://www.w3.org/1999/xlink" x="0px" y="0px"
	 viewBox="0 0 100 100" style="enable-background:new 0 0 100 100;" xml:space="preserve">
<style type="text/css">
	.st0{stroke:#231F20;stroke-width:3;stroke-linecap:round;stroke-linejoin:round;stroke-miterlimit:10;}
</style>
<g>
	<path d="M86,54.7002V24.4824c0-0.1289-0.15971-0.2549-0.19092-0.3769c-0.00729-0.0274-0.09129-0.0508-0.10008-0.0772
		c-0.03221-0.1025-0.10841-0.2002-0.16212-0.2929c-0.02299-0.0401-0.0684-0.0743-0.0948-0.1124
		c-0.0517-0.0732-0.1167-0.1416-0.18108-0.205c-0.03522-0.0342-0.07572-0.0664-0.11472-0.0977
		c-0.0279-0.0224-0.0528-0.0508-0.0821-0.0713c-0.0498-0.0342-0.1054-0.0547-0.1577-0.082
		c-0.02641-0.0147-0.0474-0.0361-0.0752-0.0488l-40.9849-18.709c-0.374-0.1719-0.8017-0.1807-1.1826-0.0274L1.69139,20.8633
		c-0.0308,0.0127-0.0542,0.0351-0.084,0.0488c-0.062,0.0303-0.1269,0.0537-0.185,0.0928c-0.022,0.0146-0.0386,0.0351-0.0596,0.0508
		c-0.043,0.0322-0.0806,0.0673-0.1196,0.1025c-0.063,0.0586-0.1206,0.1191-0.1724,0.1865c-0.0312,0.041-0.061,0.0811-0.0884,0.125
		c-0.0469,0.0762-0.0835,0.1553-0.1162,0.2383c-0.0176,0.044-0.0376,0.085-0.0508,0.1309
		c-0.0317,0.1093,0.0757,0.2236,0.0699,0.3398C0.88379,22.1982,1,22.2168,1,22.2373c0,0.0029,0,0.0059,0,0.0088
		c0,0.0029,0,0.0059,0,0.0088V78.207c0,0.6094,0.24409,1.1582,0.80809,1.3887l40.27,16.4844
		c0.1045,0.1484,0.1968,0.2851,0.3526,0.3896c0.2505,0.167,0.5258,0.253,0.81831,0.253c0.19389,0,0.38039-0.0372,0.56449-0.1133
		l17.5303-7.2403c3.9838,4.4239,9.7495,7.211,16.15721,7.211c11.99268,0,21.88908-9.7559,21.88908-21.7481
		C99.39008,65.7471,94,57.9492,86,54.7002z M24.97609,14.7324l35.937,16.8985l-17.312,6.5L6.18209,22.291L24.97609,14.7324z
		 M43.19579,7.4053l37.1138,16.9424L64.833,30.1582L28.77639,13.2041L43.19579,7.4053z M4,24.5322l38,16.3272v51.8642L4,77.1992
		V24.5322z M45,92.9805V40.9102l38-14.2618v27.0723c-2-0.4141-3.561-0.6377-5.35992-0.6377
		c-11.9912,0-21.8178,9.7568-21.8178,21.749c0,4.4668,1.4536,8.6231,3.7719,12.0811L45,92.9805z M77.499,93.5801
		c-10.33742,0-18.747-8.4102-18.747-18.7481s8.40958-18.749,18.747-18.749c10.33839,0,18.749,8.4111,18.749,18.749
		S87.83739,93.5801,77.499,93.5801z"/>
	<path d="M79.38769,65.998c-0.2778-0.2851-0.6572-0.4482-1.0552-0.4531c-0.36961-0.0117-0.7812,0.1485-1.06641,0.4258
		l-6.18359,6.0313c-0.5932,0.5791-0.605,1.5283-0.02631,2.121c0.5781,0.5938,1.6611,0.6045,2.25391,0.0274L77,70.6807v12.1836
		c0,0.82809,0.67139,1.5,1.5,1.5c0.82858,0,1.5-0.67191,1.5-1.5V70.6523l3.40189,3.627c0.2939,0.3018,0.6176,0.4531,1.0078,0.4531
		c0.3774,0,0.7221-0.1416,1.0136-0.4258c0.5933-0.5781,0.5889-1.52731,0.0108-2.1211L79.38769,65.998z"/>
</g>
</svg>
